<?xml version="1.0" standalone="no"?>
<!DOCTYPE svg PUBLIC "-//W3C//DTD SVG 20010904//EN"
 "http://www.w3.org/TR/2001/REC-SVG-20010904/DTD/svg10.dtd">
<svg version="1.0" xmlns="http://www.w3.org/2000/svg"
 width="700.000000pt" height="700.000000pt" viewBox="0 0 700.000000 700.000000"
 preserveAspectRatio="xMidYMid meet">
<metadata>
Created by potrace 1.11, written by Peter Selinger 2001-2013
</metadata>
<g transform="translate(0.000000,700.000000) scale(0.100000,-0.100000)"
fill="#000000" stroke="none">
<path d="M4240 5272 c-206 -25 -378 -111 -530 -262 -132 -132 -210 -273 -245
-445 -21 -98 -25 -262 -9 -333 6 -29 9 -54 5 -55 -6 -4 -216 18 -266 27 -16 3
-46 9 -65 12 -113 18 -321 77 -456 129 -291 112 -615 317 -825 521 -95 91
-219 225 -219 236 0 49 -78 -107 -103 -207 -33 -129 -38 -221 -21 -354 28
-218 148 -436 313 -568 33 -26 58 -50 56 -53 -9 -14 -184 23 -269 56 -124 48
-127 49 -122 33 3 -8 7 -45 10 -84 5 -61 11 -90 31 -165 43 -163 184 -363 332
-469 85 -61 211 -123 280 -137 12 -2 32 -8 44 -13 60 -21 -282 -48 -349 -27
-30 10 -29 -9 4 -81 60 -131 164 -264 276 -349 56 -43 231 -139 259 -142 8 -1
55 -11 104 -22 50 -11 107 -20 129 -20 l39 0 -24 -18 c-47 -36 -129 -92 -136
-92 -3 0 -14 -6 -22 -14 -49 -44 -302 -155 -436 -191 -33 -9 -71 -20 -85 -25
-14 -5 -41 -11 -60 -13 -19 -3 -66 -10 -105 -17 -80 -14 -350 -20 -407 -10
-47 9 -47 2 0 -29 169 -110 551 -266 725 -297 17 -2 33 -7 37 -9 12 -7 234
-43 315 -51 171 -16 499 -8 640 16 33 6 76 13 95 16 201 31 497 131 690 232
47 25 96 51 110 58 33 18 224 148 296 203 72 55 286 266 351 346 398 488 611
1071 615 1680 l0 110 64 50 c118 91 256 234 335 348 38 54 40 59 18 52 -13 -4
-35 -13 -49 -20 -31 -15 -177 -60 -245 -75 -75 -17 -78 -18 -136 -25 l-54 -6
48 30 c130 84 300 305 332 433 6 25 3 24 -109 -32 -115 -58 -277 -117 -392
-144 -58 -13 -62 -13 -75 6 -20 27 -143 120 -210 157 -64 35 -170 74 -256 91
-55 12 -219 19 -273 12z"/>
</g>
</svg>
